<svg xmlns="http://www.w3.org/2000/svg" width="40" height="150" viewBox="0 0 40 150">
  <g id="MDI_dots-vertical" data-name="MDI / dots-vertical" transform="translate(-14.523 38)" opacity="0.6">
    <g id="Boundary" transform="translate(14.523 -38)" fill="none" stroke="rgba(0,0,0,0)" stroke-width="1" opacity="0">
      <rect width="40" height="150" stroke="none"/>
      <rect x="0.5" y="0.5" width="39" height="149" fill="none"/>
    </g>
    <path id="Path_dots-vertical" data-name="Path / dots-vertical" d="M12,16a2,2,0,1,1-2,2,2,2,0,0,1,2-2m0-6a2,2,0,1,1-2,2,2,2,0,0,1,2-2m0-6a2,2,0,1,1-2,2A2,2,0,0,1,12,4Z" transform="translate(23.601 25)" fill="#383838"/>
  </g>
</svg>
