<svg xmlns="http://www.w3.org/2000/svg" width="18" height="18" viewBox="0 0 18 18">
  <g id="MDI_phone-classic" data-name="MDI / phone-classic" opacity="0.6">
    <g id="Boundary" fill="#a6a6a6" stroke="rgba(0,0,0,0)" stroke-width="1" opacity="0">
      <rect width="18" height="18" stroke="none"/>
      <rect x="0.5" y="0.5" width="17" height="17" fill="none"/>
    </g>
    <path id="Path_phone-classic" data-name="Path / phone-classic" d="M9,3A12.728,12.728,0,0,0,.218,6.5a.761.761,0,0,0,0,1.065l1.86,1.86a.761.761,0,0,0,1.057.007,8.564,8.564,0,0,1,2-1.387.747.747,0,0,0,.42-.675V5.048A10.933,10.933,0,0,1,9,4.5a11.171,11.171,0,0,1,3.443.54V7.365a.756.756,0,0,0,.42.675,9.187,9.187,0,0,1,2,1.387.727.727,0,0,0,.51.21.758.758,0,0,0,.547-.218l1.86-1.86A.748.748,0,0,0,18,7.028a.736.736,0,0,0-.225-.525A12.724,12.724,0,0,0,9,3M6.75,6V8.25s-4.5,3.75-4.5,6v3h13.5v-3c0-2.25-4.5-6-4.5-6V6H9.75V7.5H8.25V6H6.75M9,9.75a3,3,0,1,1-3,3,3,3,0,0,1,3-3m0,1.125a1.875,1.875,0,1,0,1.875,1.875A1.875,1.875,0,0,0,9,10.875Z" transform="translate(0 -0.75)" fill="#a6a6a6"/>
  </g>
</svg>
