<svg xmlns="http://www.w3.org/2000/svg" width="496.574" height="183.333" viewBox="0 0 496.574 183.333">
  <g id="Group_1853" data-name="Group 1853" transform="translate(70.908 0.25)">
    <path id="Path_1608" data-name="Path 1608" d="M-68.964,32.2l-.652.251.5,1.3.652-.251Zm43.413-11.748v0Zm44.781,12.4-.332.614Zm-87.692.652C-54.9,28.277-46.689,21.147-25.551,21.147v-1.4c-21.484,0-30.157,7.343-43.413,12.447Zm42.911-12.353c8.731,0,15.327.648,21.983,2.5S9.853,28.574,18.9,33.463l.664-1.229C10.485,27.327,3.62,24.2-3.193,22.3S-16.747,19.75-25.551,19.75ZM18.9,33.463a68.03,68.03,0,0,0,26.519,7.975c12.6,1.221,29.159-.22,50.395-7.933l-.477-1.313c-21.064,7.651-37.415,9.054-49.783,7.856a66.637,66.637,0,0,1-25.99-7.814Z" transform="translate(0 -8.383)" fill="none" stroke="#e7f7f6" stroke-width="2"/>
    <path id="Path_1609" data-name="Path 1609" d="M225.038,32.2l-.652.25.5,1.3.652-.25ZM268.45,20.448v0Zm44.781,12.4-.332.614Zm-87.693.652c14.407-5.519,21.773-12.354,42.912-12.354v-1.4c-21.483,0-29.32,7.048-43.412,12.446ZM268.45,21.147c8.731,0,15.327.648,21.983,2.5s13.421,4.926,22.466,9.815l.664-1.229c-9.077-4.907-15.943-8.036-22.755-9.932S277.254,19.75,268.45,19.75ZM312.9,33.463a68.029,68.029,0,0,0,26.519,7.975c12.6,1.221,29.159-.22,50.394-7.933l-.477-1.313c-21.064,7.651-37.415,9.054-49.783,7.856a66.634,66.634,0,0,1-25.99-7.814Z" transform="translate(-129.715 -8.383)" fill="none" stroke="#e7f7f6" stroke-width="2"/>
    <path id="Path_1610" data-name="Path 1610" d="M519.036,32.2l-.652.251.5,1.3.652-.251Zm43.413-11.748v0Zm44.781,12.4-.332.614Zm-87.692.652c13.566-5.223,21.773-12.353,42.911-12.353v-1.4c-21.484,0-30.156,7.343-43.413,12.447Zm42.911-12.353c8.731,0,15.327.648,21.983,2.5s13.421,4.926,22.466,9.815l.664-1.229c-9.077-4.907-15.942-8.036-22.755-9.932s-13.554-2.552-22.358-2.552ZM606.9,33.463a68.028,68.028,0,0,0,26.519,7.975c12.6,1.221,29.159-.22,50.395-7.933l-.477-1.313c-21.064,7.651-37.415,9.054-49.783,7.856a66.635,66.635,0,0,1-25.99-7.814Z" transform="translate(-259.427 -8.383)" fill="none" stroke="#e7f7f6" stroke-width="2"/>
    <path id="Path_1611" data-name="Path 1611" d="M-68.964,13.2l-.652.251.5,1.3.652-.251ZM-25.551,1.448v0Zm44.781,12.4-.332.614Zm-87.692.652C-54.9,9.277-46.689,2.147-25.551,2.147V.75C-47.035.75-55.707,8.093-68.964,13.2ZM-25.551,2.147c8.731,0,15.327.648,21.983,2.5S9.853,9.574,18.9,14.463l.664-1.229C10.485,8.327,3.62,5.2-3.193,3.3S-16.747.75-25.551.75ZM18.9,14.463a68.03,68.03,0,0,0,26.519,7.975c12.6,1.221,29.159-.22,50.395-7.933l-.477-1.313c-21.064,7.651-37.415,9.054-49.783,7.856a66.637,66.637,0,0,1-25.99-7.814Z" transform="translate(0 0)" fill="none" stroke="#e7f7f6" stroke-width="2"/>
    <path id="Path_1612" data-name="Path 1612" d="M225.038,13.2l-.652.25.5,1.3.652-.25ZM268.45,1.448v0Zm44.781,12.4-.332.614Zm-87.693.652C239.945,8.981,247.311,2.147,268.45,2.147V.75C246.966.75,239.13,7.8,225.038,13.2ZM268.45,2.147c8.731,0,15.327.648,21.983,2.5s13.421,4.926,22.466,9.815l.664-1.229C304.486,8.327,297.621,5.2,290.808,3.3S277.254.75,268.45.75ZM312.9,14.463a68.029,68.029,0,0,0,26.519,7.975c12.6,1.221,29.159-.22,50.394-7.933l-.477-1.313c-21.064,7.651-37.415,9.054-49.783,7.856a66.634,66.634,0,0,1-25.99-7.814Z" transform="translate(-129.715 0)" fill="none" stroke="#e7f7f6" stroke-width="2"/>
    <path id="Path_1613" data-name="Path 1613" d="M519.036,13.2l-.652.251.5,1.3.652-.251ZM562.449,1.448v0Zm44.781,12.4-.332.614Zm-87.692.652C533.1,9.277,541.311,2.147,562.449,2.147V.75c-21.484,0-30.156,7.343-43.413,12.447ZM562.449,2.147c8.731,0,15.327.648,21.983,2.5s13.421,4.926,22.466,9.815l.664-1.229C598.485,8.327,591.62,5.2,584.807,3.3S571.253.75,562.449.75ZM606.9,14.463a68.028,68.028,0,0,0,26.519,7.975c12.6,1.221,29.159-.22,50.395-7.933l-.477-1.313c-21.064,7.651-37.415,9.054-49.783,7.856a66.635,66.635,0,0,1-25.99-7.814Z" transform="translate(-259.427 0)" fill="none" stroke="#e7f7f6" stroke-width="2"/>
    <path id="Path_1614" data-name="Path 1614" d="M-68.964,70.2l-.652.251.5,1.3.652-.251Zm43.413-11.748v0Zm44.781,12.4-.332.614Zm-87.692.652C-54.9,66.277-46.689,59.147-25.551,59.147v-1.4c-21.484,0-30.157,7.343-43.413,12.447Zm42.911-12.353c8.731,0,15.327.648,21.983,2.5S9.853,66.574,18.9,71.463l.664-1.229C10.485,65.327,3.62,62.2-3.193,60.3S-16.747,57.75-25.551,57.75ZM18.9,71.463a68.03,68.03,0,0,0,26.519,7.975c12.6,1.221,29.159-.22,50.395-7.933l-.477-1.313c-21.064,7.651-37.415,9.054-49.783,7.856a66.637,66.637,0,0,1-25.99-7.814Z" transform="translate(0 -25.149)" fill="none" stroke="#e7f7f6" stroke-width="2"/>
    <path id="Path_1615" data-name="Path 1615" d="M225.038,70.2l-.652.25.5,1.3.652-.25ZM268.45,58.448v0Zm44.781,12.4-.332.614Zm-87.693.652c14.407-5.519,21.773-12.354,42.912-12.354v-1.4c-21.483,0-29.32,7.048-43.412,12.446ZM268.45,59.147c8.731,0,15.327.648,21.983,2.5s13.421,4.926,22.466,9.815l.664-1.229c-9.077-4.907-15.943-8.036-22.755-9.932S277.254,57.75,268.45,57.75ZM312.9,71.463a68.029,68.029,0,0,0,26.519,7.975c12.6,1.221,29.159-.22,50.394-7.933l-.477-1.313c-21.064,7.651-37.415,9.054-49.783,7.856a66.634,66.634,0,0,1-25.99-7.814Z" transform="translate(-129.715 -25.149)" fill="none" stroke="#e7f7f6" stroke-width="2"/>
    <path id="Path_1616" data-name="Path 1616" d="M519.036,70.2l-.652.251.5,1.3.652-.251Zm43.413-11.748v0Zm44.781,12.4-.332.614Zm-87.692.652c13.566-5.223,21.773-12.353,42.911-12.353v-1.4c-21.484,0-30.156,7.343-43.413,12.447Zm42.911-12.353c8.731,0,15.327.648,21.983,2.5s13.421,4.926,22.466,9.815l.664-1.229c-9.077-4.907-15.942-8.036-22.755-9.932s-13.554-2.552-22.358-2.552ZM606.9,71.463a68.028,68.028,0,0,0,26.519,7.975c12.6,1.221,29.159-.22,50.395-7.933l-.477-1.313c-21.064,7.651-37.415,9.054-49.783,7.856a66.635,66.635,0,0,1-25.99-7.814Z" transform="translate(-259.427 -25.149)" fill="none" stroke="#e7f7f6" stroke-width="2"/>
    <path id="Path_1617" data-name="Path 1617" d="M-68.964,51.2l-.652.251.5,1.3.652-.251Zm43.413-11.748v0Zm44.781,12.4-.332.614Zm-87.692.652C-54.9,47.277-46.689,40.147-25.551,40.147v-1.4c-21.484,0-30.157,7.343-43.413,12.447Zm42.911-12.353c8.731,0,15.327.648,21.983,2.5S9.853,47.574,18.9,52.463l.664-1.229C10.485,46.327,3.62,43.2-3.193,41.3S-16.747,38.75-25.551,38.75ZM18.9,52.463a68.03,68.03,0,0,0,26.519,7.975c12.6,1.221,29.159-.22,50.395-7.933l-.477-1.313c-21.064,7.651-37.415,9.054-49.783,7.856a66.637,66.637,0,0,1-25.99-7.814Z" transform="translate(0 -16.766)" fill="none" stroke="#e7f7f6" stroke-width="2"/>
    <path id="Path_1618" data-name="Path 1618" d="M225.038,51.2l-.652.25.5,1.3.652-.25ZM268.45,39.448v0Zm44.781,12.4-.332.614Zm-87.693.652c14.407-5.519,21.773-12.354,42.912-12.354v-1.4c-21.483,0-29.32,7.048-43.412,12.446ZM268.45,40.147c8.731,0,15.327.648,21.983,2.5s13.421,4.926,22.466,9.815l.664-1.229c-9.077-4.907-15.943-8.036-22.755-9.932S277.254,38.75,268.45,38.75ZM312.9,52.463a68.029,68.029,0,0,0,26.519,7.975c12.6,1.221,29.159-.22,50.394-7.933l-.477-1.313c-21.064,7.651-37.415,9.054-49.783,7.856a66.634,66.634,0,0,1-25.99-7.814Z" transform="translate(-129.715 -16.766)" fill="none" stroke="#e7f7f6" stroke-width="2"/>
    <path id="Path_1619" data-name="Path 1619" d="M519.036,51.2l-.652.251.5,1.3.652-.251Zm43.413-11.748v0Zm44.781,12.4-.332.614Zm-87.692.652c13.566-5.223,21.773-12.353,42.911-12.353v-1.4c-21.484,0-30.156,7.343-43.413,12.447Zm42.911-12.353c8.731,0,15.327.648,21.983,2.5s13.421,4.926,22.466,9.815l.664-1.229c-9.077-4.907-15.942-8.036-22.755-9.932s-13.554-2.552-22.358-2.552ZM606.9,52.463a68.028,68.028,0,0,0,26.519,7.975c12.6,1.221,29.159-.22,50.395-7.933l-.477-1.313c-21.064,7.651-37.415,9.054-49.783,7.856a66.635,66.635,0,0,1-25.99-7.814Z" transform="translate(-259.427 -16.766)" fill="none" stroke="#e7f7f6" stroke-width="2"/>
    <path id="Path_1620" data-name="Path 1620" d="M-68.964,108.2l-.652.251.5,1.3.652-.251Zm43.413-11.748v0Zm44.781,12.4-.332.614Zm-87.692.652c13.566-5.223,21.773-12.353,42.911-12.353v-1.4c-21.484,0-30.157,7.343-43.413,12.447Zm42.911-12.353c8.731,0,15.327.648,21.983,2.5s13.421,4.926,22.466,9.815l.664-1.229C10.485,103.327,3.62,100.2-3.193,98.3S-16.747,95.75-25.551,95.75ZM18.9,109.463a68.023,68.023,0,0,0,26.519,7.975c12.6,1.221,29.159-.22,50.395-7.933l-.477-1.313c-21.064,7.651-37.415,9.054-49.783,7.856a66.635,66.635,0,0,1-25.99-7.814Z" transform="translate(0 -41.914)" fill="none" stroke="#e7f7f6" stroke-width="2"/>
    <path id="Path_1621" data-name="Path 1621" d="M225.038,108.2l-.652.25.5,1.3.652-.25ZM268.45,96.448v0Zm44.781,12.4-.332.614Zm-87.693.652c14.407-5.519,21.773-12.354,42.912-12.354v-1.4c-21.483,0-29.32,7.048-43.412,12.446ZM268.45,97.147c8.731,0,15.327.648,21.983,2.5s13.421,4.926,22.466,9.815l.664-1.229c-9.077-4.907-15.943-8.036-22.755-9.932S277.254,95.75,268.45,95.75ZM312.9,109.463a68.022,68.022,0,0,0,26.519,7.975c12.6,1.221,29.159-.22,50.394-7.933l-.477-1.313c-21.064,7.651-37.415,9.054-49.783,7.856a66.632,66.632,0,0,1-25.99-7.814Z" transform="translate(-129.715 -41.914)" fill="none" stroke="#e7f7f6" stroke-width="2"/>
    <path id="Path_1622" data-name="Path 1622" d="M519.036,108.2l-.652.251.5,1.3.652-.251Zm43.413-11.748v0Zm44.781,12.4-.332.614Zm-87.692.652c13.566-5.223,21.773-12.353,42.911-12.353v-1.4c-21.484,0-30.156,7.343-43.413,12.447Zm42.911-12.353c8.731,0,15.327.648,21.983,2.5s13.421,4.926,22.466,9.815l.664-1.229c-9.077-4.907-15.942-8.036-22.755-9.932s-13.554-2.552-22.358-2.552ZM606.9,109.463a68.02,68.02,0,0,0,26.519,7.975c12.6,1.221,29.159-.22,50.395-7.933l-.477-1.313c-21.064,7.651-37.415,9.054-49.783,7.856a66.633,66.633,0,0,1-25.99-7.814Z" transform="translate(-259.427 -41.914)" fill="none" stroke="#e7f7f6" stroke-width="2"/>
    <path id="Path_1623" data-name="Path 1623" d="M-68.964,89.2l-.652.251.5,1.3.652-.251Zm43.413-11.748v0Zm44.781,12.4-.332.614Zm-87.692.652C-54.9,85.277-46.689,78.147-25.551,78.147v-1.4c-21.484,0-30.157,7.343-43.413,12.447Zm42.911-12.353c8.731,0,15.327.648,21.983,2.5S9.853,85.574,18.9,90.463l.664-1.229C10.485,84.327,3.62,81.2-3.193,79.3S-16.747,76.75-25.551,76.75ZM18.9,90.463a68.023,68.023,0,0,0,26.519,7.975c12.6,1.221,29.159-.22,50.395-7.933l-.477-1.313c-21.064,7.651-37.415,9.054-49.783,7.856a66.633,66.633,0,0,1-25.99-7.814Z" transform="translate(0 -33.531)" fill="none" stroke="#e7f7f6" stroke-width="2"/>
    <path id="Path_1624" data-name="Path 1624" d="M225.038,89.2l-.652.25.5,1.3.652-.25ZM268.45,77.448v0Zm44.781,12.4-.332.614Zm-87.693.652c14.407-5.519,21.773-12.354,42.912-12.354v-1.4c-21.483,0-29.32,7.048-43.412,12.446ZM268.45,78.147c8.731,0,15.327.648,21.983,2.5s13.421,4.926,22.466,9.815l.664-1.229c-9.077-4.907-15.943-8.036-22.755-9.932S277.254,76.75,268.45,76.75ZM312.9,90.463a68.022,68.022,0,0,0,26.519,7.975c12.6,1.221,29.159-.22,50.394-7.933l-.477-1.313c-21.064,7.651-37.415,9.054-49.783,7.856a66.631,66.631,0,0,1-25.99-7.814Z" transform="translate(-129.715 -33.531)" fill="none" stroke="#e7f7f6" stroke-width="2"/>
    <path id="Path_1625" data-name="Path 1625" d="M519.036,89.2l-.652.251.5,1.3.652-.251Zm43.413-11.748v0Zm44.781,12.4-.332.614Zm-87.692.652c13.566-5.223,21.773-12.353,42.911-12.353v-1.4c-21.484,0-30.156,7.343-43.413,12.447Zm42.911-12.353c8.731,0,15.327.648,21.983,2.5s13.421,4.926,22.466,9.815l.664-1.229c-9.077-4.907-15.942-8.036-22.755-9.932s-13.554-2.552-22.358-2.552ZM606.9,90.463a68.02,68.02,0,0,0,26.519,7.975c12.6,1.221,29.159-.22,50.395-7.933l-.477-1.313c-21.064,7.651-37.415,9.054-49.783,7.856a66.631,66.631,0,0,1-25.99-7.814Z" transform="translate(-259.427 -33.531)" fill="none" stroke="#e7f7f6" stroke-width="2"/>
    <path id="Path_1626" data-name="Path 1626" d="M-68.964,146.2l-.652.251.5,1.3.652-.251Zm43.413-11.748v0Zm44.781,12.4-.332.614Zm-87.692.652c13.566-5.223,21.773-12.353,42.911-12.353v-1.4c-21.484,0-30.157,7.343-43.413,12.447Zm42.911-12.353c8.731,0,15.327.648,21.983,2.5s13.421,4.926,22.466,9.815l.664-1.229C10.485,141.327,3.62,138.2-3.193,136.3s-13.554-2.552-22.358-2.552ZM18.9,147.463a68.021,68.021,0,0,0,26.519,7.975c12.6,1.221,29.159-.22,50.395-7.933l-.477-1.313c-21.064,7.651-37.415,9.054-49.783,7.856a66.634,66.634,0,0,1-25.99-7.814Z" transform="translate(0 -58.68)" fill="none" stroke="#e7f7f6" stroke-width="2"/>
    <path id="Path_1627" data-name="Path 1627" d="M225.038,146.2l-.652.25.5,1.3.652-.25Zm43.412-11.748v0Zm44.781,12.4-.332.614Zm-87.693.652c14.407-5.519,21.773-12.354,42.912-12.354v-1.4c-21.483,0-29.32,7.048-43.412,12.446Zm42.912-12.354c8.731,0,15.327.648,21.983,2.5s13.421,4.926,22.466,9.815l.664-1.229c-9.077-4.907-15.943-8.036-22.755-9.932s-13.554-2.552-22.358-2.552ZM312.9,147.463a68.021,68.021,0,0,0,26.519,7.975c12.6,1.221,29.159-.22,50.394-7.933l-.477-1.313c-21.064,7.651-37.415,9.054-49.783,7.856a66.632,66.632,0,0,1-25.99-7.814Z" transform="translate(-129.715 -58.68)" fill="none" stroke="#e7f7f6" stroke-width="2"/>
    <path id="Path_1628" data-name="Path 1628" d="M519.036,146.2l-.652.251.5,1.3.652-.251Zm43.413-11.748v0Zm44.781,12.4-.332.614Zm-87.692.652c13.566-5.223,21.773-12.353,42.911-12.353v-1.4c-21.484,0-30.156,7.343-43.413,12.447Zm42.911-12.353c8.731,0,15.327.648,21.983,2.5s13.421,4.926,22.466,9.815l.664-1.229c-9.077-4.907-15.942-8.036-22.755-9.932s-13.554-2.552-22.358-2.552ZM606.9,147.463a68.019,68.019,0,0,0,26.519,7.975c12.6,1.221,29.159-.22,50.395-7.933l-.477-1.313c-21.064,7.651-37.415,9.054-49.783,7.856a66.633,66.633,0,0,1-25.99-7.814Z" transform="translate(-259.427 -58.68)" fill="none" stroke="#e7f7f6" stroke-width="2"/>
    <path id="Path_1629" data-name="Path 1629" d="M-68.964,127.2l-.652.251.5,1.3.652-.251Zm43.413-11.748v0Zm44.781,12.4-.332.614Zm-87.692.652c13.566-5.223,21.773-12.353,42.911-12.353v-1.4c-21.484,0-30.157,7.343-43.413,12.447Zm42.911-12.353c8.731,0,15.327.648,21.983,2.5s13.421,4.926,22.466,9.815l.664-1.229C10.485,122.327,3.62,119.2-3.193,117.3s-13.554-2.552-22.358-2.552ZM18.9,128.463a68.023,68.023,0,0,0,26.519,7.975c12.6,1.221,29.159-.22,50.395-7.933l-.477-1.313c-21.064,7.651-37.415,9.054-49.783,7.856a66.635,66.635,0,0,1-25.99-7.814Z" transform="translate(0 -50.297)" fill="none" stroke="#e7f7f6" stroke-width="2"/>
    <path id="Path_1630" data-name="Path 1630" d="M225.038,127.2l-.652.25.5,1.3.652-.25Zm43.412-11.748v0Zm44.781,12.4-.332.614Zm-87.693.652c14.407-5.519,21.773-12.354,42.912-12.354v-1.4c-21.483,0-29.32,7.048-43.412,12.446Zm42.912-12.354c8.731,0,15.327.648,21.983,2.5s13.421,4.926,22.466,9.815l.664-1.229c-9.077-4.907-15.943-8.035-22.755-9.932s-13.554-2.552-22.358-2.552ZM312.9,128.463a68.022,68.022,0,0,0,26.519,7.975c12.6,1.221,29.159-.22,50.394-7.933l-.477-1.313c-21.064,7.651-37.415,9.054-49.783,7.856a66.632,66.632,0,0,1-25.99-7.814Z" transform="translate(-129.715 -50.297)" fill="none" stroke="#e7f7f6" stroke-width="2"/>
    <path id="Path_1631" data-name="Path 1631" d="M519.036,127.2l-.652.251.5,1.3.652-.251Zm43.413-11.748v0Zm44.781,12.4-.332.614Zm-87.692.652c13.566-5.223,21.773-12.353,42.911-12.353v-1.4c-21.484,0-30.156,7.343-43.413,12.447Zm42.911-12.353c8.731,0,15.327.648,21.983,2.5s13.421,4.926,22.466,9.815l.664-1.229c-9.077-4.907-15.942-8.035-22.755-9.932s-13.554-2.552-22.358-2.552ZM606.9,128.463a68.02,68.02,0,0,0,26.519,7.975c12.6,1.221,29.159-.22,50.395-7.933l-.477-1.313c-21.064,7.651-37.415,9.054-49.783,7.856a66.633,66.633,0,0,1-25.99-7.814Z" transform="translate(-259.427 -50.297)" fill="none" stroke="#e7f7f6" stroke-width="2"/>
    <path id="Path_1632" data-name="Path 1632" d="M-68.964,184.2l-.652.251.5,1.3.652-.251Zm43.413-11.748v0Zm44.781,12.4-.332.614Zm-87.692.652c13.566-5.223,21.773-12.353,42.911-12.353v-1.4c-21.484,0-30.157,7.343-43.413,12.447Zm42.911-12.353c8.731,0,15.327.648,21.983,2.5s13.421,4.926,22.466,9.815l.664-1.229C10.485,179.327,3.62,176.2-3.193,174.3s-13.554-2.552-22.358-2.552ZM18.9,185.463a68.023,68.023,0,0,0,26.519,7.975c12.6,1.221,29.159-.22,50.395-7.933l-.477-1.313c-21.064,7.651-37.415,9.054-49.783,7.856a66.634,66.634,0,0,1-25.99-7.814Z" transform="translate(0 -75.446)" fill="none" stroke="#e7f7f6" stroke-width="2"/>
    <path id="Path_1633" data-name="Path 1633" d="M225.038,184.2l-.652.25.5,1.3.652-.25Zm43.412-11.748v0Zm44.781,12.4-.332.614Zm-87.693.652c14.407-5.519,21.773-12.354,42.912-12.354v-1.4c-21.483,0-29.32,7.048-43.412,12.446Zm42.912-12.354c8.731,0,15.327.648,21.983,2.5s13.421,4.926,22.466,9.815l.664-1.229c-9.077-4.907-15.943-8.035-22.755-9.932s-13.554-2.552-22.358-2.552ZM312.9,185.463a68.022,68.022,0,0,0,26.519,7.975c12.6,1.221,29.159-.22,50.394-7.933l-.477-1.313c-21.064,7.651-37.415,9.054-49.783,7.856a66.631,66.631,0,0,1-25.99-7.814Z" transform="translate(-129.715 -75.446)" fill="none" stroke="#e7f7f6" stroke-width="2"/>
    <path id="Path_1634" data-name="Path 1634" d="M519.036,184.2l-.652.251.5,1.3.652-.251Zm43.413-11.748v0Zm44.781,12.4-.332.614Zm-87.692.652c13.566-5.223,21.773-12.353,42.911-12.353v-1.4c-21.484,0-30.156,7.343-43.413,12.447Zm42.911-12.353c8.731,0,15.327.648,21.983,2.5s13.421,4.926,22.466,9.815l.664-1.229c-9.077-4.907-15.942-8.035-22.755-9.932s-13.554-2.552-22.358-2.552ZM606.9,185.463a68.021,68.021,0,0,0,26.519,7.975c12.6,1.221,29.159-.22,50.395-7.933l-.477-1.313c-21.064,7.651-37.415,9.054-49.783,7.856a66.632,66.632,0,0,1-25.99-7.814Z" transform="translate(-259.427 -75.446)" fill="none" stroke="#e7f7f6" stroke-width="2"/>
    <path id="Path_1635" data-name="Path 1635" d="M-68.964,165.2l-.652.251.5,1.3.652-.251Zm43.413-11.748v0Zm44.781,12.4-.332.614Zm-87.692.652c13.566-5.223,21.773-12.353,42.911-12.353v-1.4c-21.484,0-30.157,7.343-43.413,12.447Zm42.911-12.353c8.731,0,15.327.648,21.983,2.5s13.421,4.926,22.466,9.815l.664-1.229C10.485,160.327,3.62,157.2-3.193,155.3s-13.554-2.552-22.358-2.552ZM18.9,166.463a68.022,68.022,0,0,0,26.519,7.975c12.6,1.221,29.159-.22,50.395-7.933l-.477-1.313c-21.064,7.651-37.415,9.054-49.783,7.856a66.635,66.635,0,0,1-25.99-7.814Z" transform="translate(0 -67.063)" fill="none" stroke="#e7f7f6" stroke-width="2"/>
    <path id="Path_1636" data-name="Path 1636" d="M225.038,165.2l-.652.25.5,1.3.652-.25Zm43.412-11.748v0Zm44.781,12.4-.332.614Zm-87.693.652c14.407-5.519,21.773-12.354,42.912-12.354v-1.4c-21.483,0-29.32,7.048-43.412,12.446Zm42.912-12.354c8.731,0,15.327.648,21.983,2.5s13.421,4.926,22.466,9.815l.664-1.229c-9.077-4.907-15.943-8.035-22.755-9.932s-13.554-2.552-22.358-2.552ZM312.9,166.463a68.021,68.021,0,0,0,26.519,7.975c12.6,1.221,29.159-.22,50.394-7.933l-.477-1.313c-21.064,7.651-37.415,9.054-49.783,7.856a66.633,66.633,0,0,1-25.99-7.814Z" transform="translate(-129.715 -67.063)" fill="none" stroke="#e7f7f6" stroke-width="2"/>
    <path id="Path_1637" data-name="Path 1637" d="M519.036,165.2l-.652.251.5,1.3.652-.251Zm43.413-11.748v0Zm44.781,12.4-.332.614Zm-87.692.652c13.566-5.223,21.773-12.353,42.911-12.353v-1.4c-21.484,0-30.156,7.343-43.413,12.447Zm42.911-12.353c8.731,0,15.327.648,21.983,2.5s13.421,4.926,22.466,9.815l.664-1.229c-9.077-4.907-15.942-8.035-22.755-9.932s-13.554-2.552-22.358-2.552ZM606.9,166.463a68.019,68.019,0,0,0,26.519,7.975c12.6,1.221,29.159-.22,50.395-7.933l-.477-1.313c-21.064,7.651-37.415,9.054-49.783,7.856a66.634,66.634,0,0,1-25.99-7.814Z" transform="translate(-259.427 -67.063)" fill="none" stroke="#e7f7f6" stroke-width="2"/>
    <path id="Path_1638" data-name="Path 1638" d="M-68.964,222.2l-.652.251.5,1.3.652-.251Zm43.413-11.748v0Zm44.781,12.4-.332.614Zm-87.692.652c13.566-5.223,21.773-12.353,42.911-12.353v-1.4c-21.484,0-30.157,7.343-43.413,12.447Zm42.911-12.353c8.731,0,15.327.648,21.983,2.5s13.421,4.926,22.466,9.815l.664-1.229C10.485,217.327,3.62,214.2-3.193,212.3s-13.554-2.552-22.358-2.552ZM18.9,223.463a68.022,68.022,0,0,0,26.519,7.975c12.6,1.221,29.159-.22,50.395-7.933l-.477-1.313c-21.064,7.651-37.415,9.054-49.783,7.856a66.634,66.634,0,0,1-25.99-7.814Z" transform="translate(0 -92.211)" fill="none" stroke="#e7f7f6" stroke-width="2"/>
    <path id="Path_1639" data-name="Path 1639" d="M225.038,222.2l-.652.25.5,1.3.652-.25Zm43.412-11.748v0Zm44.781,12.4-.332.614Zm-87.693.652c14.407-5.519,21.773-12.354,42.912-12.354v-1.4c-21.483,0-29.32,7.048-43.412,12.446Zm42.912-12.354c8.731,0,15.327.648,21.983,2.5s13.421,4.926,22.466,9.815l.664-1.229c-9.077-4.907-15.943-8.036-22.755-9.932s-13.554-2.552-22.358-2.552ZM312.9,223.463a68.021,68.021,0,0,0,26.519,7.975c12.6,1.221,29.159-.22,50.394-7.933l-.477-1.313c-21.064,7.651-37.415,9.054-49.783,7.856a66.631,66.631,0,0,1-25.99-7.814Z" transform="translate(-129.715 -92.211)" fill="none" stroke="#e7f7f6" stroke-width="2"/>
    <path id="Path_1640" data-name="Path 1640" d="M519.036,222.2l-.652.251.5,1.3.652-.251Zm43.413-11.748v0Zm44.781,12.4-.332.614Zm-87.692.652c13.566-5.223,21.773-12.353,42.911-12.353v-1.4c-21.484,0-30.156,7.343-43.413,12.447Zm42.911-12.353c8.731,0,15.327.648,21.983,2.5s13.421,4.926,22.466,9.815l.664-1.229c-9.077-4.907-15.942-8.036-22.755-9.932s-13.554-2.552-22.358-2.552ZM606.9,223.463a68.02,68.02,0,0,0,26.519,7.975c12.6,1.221,29.159-.22,50.395-7.933l-.477-1.313c-21.064,7.651-37.415,9.054-49.783,7.856a66.632,66.632,0,0,1-25.99-7.814Z" transform="translate(-259.427 -92.211)" fill="none" stroke="#e7f7f6" stroke-width="2"/>
    <path id="Path_1641" data-name="Path 1641" d="M-68.964,203.2l-.652.251.5,1.3.652-.251Zm43.413-11.748v0Zm44.781,12.4-.332.614Zm-87.692.652c13.566-5.223,21.773-12.353,42.911-12.353v-1.4c-21.484,0-30.157,7.343-43.413,12.447Zm42.911-12.353c8.731,0,15.327.648,21.983,2.5s13.421,4.926,22.466,9.815l.664-1.229C10.485,198.327,3.62,195.2-3.193,193.3s-13.554-2.552-22.358-2.552ZM18.9,204.463a68.024,68.024,0,0,0,26.519,7.975c12.6,1.221,29.159-.22,50.395-7.933l-.477-1.313c-21.064,7.651-37.415,9.054-49.783,7.856a66.634,66.634,0,0,1-25.99-7.814Z" transform="translate(0 -83.829)" fill="none" stroke="#e7f7f6" stroke-width="2"/>
    <path id="Path_1642" data-name="Path 1642" d="M225.038,203.2l-.652.25.5,1.3.652-.25Zm43.412-11.748v0Zm44.781,12.4-.332.614Zm-87.693.652c14.407-5.519,21.773-12.354,42.912-12.354v-1.4c-21.483,0-29.32,7.048-43.412,12.446Zm42.912-12.354c8.731,0,15.327.648,21.983,2.5s13.421,4.926,22.466,9.815l.664-1.229c-9.077-4.907-15.943-8.035-22.755-9.932s-13.554-2.552-22.358-2.552ZM312.9,204.463a68.023,68.023,0,0,0,26.519,7.975c12.6,1.221,29.159-.22,50.394-7.933l-.477-1.313c-21.064,7.651-37.415,9.054-49.783,7.856a66.631,66.631,0,0,1-25.99-7.814Z" transform="translate(-129.715 -83.829)" fill="none" stroke="#e7f7f6" stroke-width="2"/>
    <path id="Path_1643" data-name="Path 1643" d="M519.036,203.2l-.652.251.5,1.3.652-.251Zm43.413-11.748v0Zm44.781,12.4-.332.614Zm-87.692.652c13.566-5.223,21.773-12.353,42.911-12.353v-1.4c-21.484,0-30.156,7.343-43.413,12.447Zm42.911-12.353c8.731,0,15.327.648,21.983,2.5s13.421,4.926,22.466,9.815l.664-1.229c-9.077-4.907-15.942-8.035-22.755-9.932s-13.554-2.552-22.358-2.552ZM606.9,204.463a68.021,68.021,0,0,0,26.519,7.975c12.6,1.221,29.159-.22,50.395-7.933l-.477-1.313c-21.064,7.651-37.415,9.054-49.783,7.856a66.632,66.632,0,0,1-25.99-7.814Z" transform="translate(-259.427 -83.829)" fill="none" stroke="#e7f7f6" stroke-width="2"/>
    <path id="Path_1644" data-name="Path 1644" d="M-68.964,260.2l-.652.251.5,1.3.652-.251Zm43.413-11.748v0Zm44.781,12.4-.332.614Zm-87.692.652c13.566-5.223,21.773-12.353,42.911-12.353v-1.4c-21.484,0-30.157,7.343-43.413,12.447Zm42.911-12.353c8.731,0,15.327.648,21.983,2.5s13.421,4.926,22.466,9.815l.664-1.229C10.485,255.327,3.62,252.2-3.193,250.3s-13.554-2.552-22.358-2.552ZM18.9,261.463a68.023,68.023,0,0,0,26.519,7.975c12.6,1.221,29.159-.22,50.395-7.933l-.477-1.313c-21.064,7.651-37.415,9.054-49.783,7.856a66.633,66.633,0,0,1-25.99-7.814Z" transform="translate(0 -108.977)" fill="none" stroke="#e7f7f6" stroke-width="2"/>
    <path id="Path_1645" data-name="Path 1645" d="M225.038,260.2l-.652.25.5,1.3.652-.25Zm43.412-11.748v0Zm44.781,12.4-.332.614Zm-87.693.652c14.407-5.519,21.773-12.354,42.912-12.354v-1.4c-21.483,0-29.32,7.048-43.412,12.446Zm42.912-12.354c8.731,0,15.327.648,21.983,2.5s13.421,4.926,22.466,9.815l.664-1.229c-9.077-4.907-15.943-8.035-22.755-9.932s-13.554-2.552-22.358-2.552ZM312.9,261.463a68.022,68.022,0,0,0,26.519,7.975c12.6,1.221,29.159-.22,50.394-7.933l-.477-1.313c-21.064,7.651-37.415,9.054-49.783,7.856a66.631,66.631,0,0,1-25.99-7.814Z" transform="translate(-129.715 -108.977)" fill="none" stroke="#e7f7f6" stroke-width="2"/>
    <path id="Path_1646" data-name="Path 1646" d="M519.036,260.2l-.652.251.5,1.3.652-.251Zm43.413-11.748v0Zm44.781,12.4-.332.614Zm-87.692.652c13.566-5.223,21.773-12.353,42.911-12.353v-1.4c-21.484,0-30.156,7.343-43.413,12.447Zm42.911-12.353c8.731,0,15.327.648,21.983,2.5s13.421,4.926,22.466,9.815l.664-1.229c-9.077-4.907-15.942-8.035-22.755-9.932s-13.554-2.552-22.358-2.552ZM606.9,261.463a68.02,68.02,0,0,0,26.519,7.975c12.6,1.221,29.159-.22,50.395-7.933l-.477-1.313c-21.064,7.651-37.415,9.054-49.783,7.856a66.631,66.631,0,0,1-25.99-7.814Z" transform="translate(-259.427 -108.977)" fill="none" stroke="#e7f7f6" stroke-width="2"/>
    <path id="Path_1647" data-name="Path 1647" d="M-68.964,241.2l-.652.251.5,1.3.652-.251Zm43.413-11.748v0Zm44.781,12.4-.332.614Zm-87.692.652c13.566-5.223,21.773-12.353,42.911-12.353v-1.4c-21.484,0-30.157,7.343-43.413,12.447Zm42.911-12.353c8.731,0,15.327.648,21.983,2.5s13.421,4.926,22.466,9.815l.664-1.229C10.485,236.327,3.62,233.2-3.193,231.3s-13.554-2.552-22.358-2.552ZM18.9,242.463a68.022,68.022,0,0,0,26.519,7.975c12.6,1.221,29.159-.22,50.395-7.933l-.477-1.313c-21.064,7.651-37.415,9.054-49.783,7.856a66.634,66.634,0,0,1-25.99-7.814Z" transform="translate(0 -100.594)" fill="none" stroke="#e7f7f6" stroke-width="2"/>
    <path id="Path_1648" data-name="Path 1648" d="M225.038,241.2l-.652.25.5,1.3.652-.25Zm43.412-11.748v0Zm44.781,12.4-.332.614Zm-87.693.652c14.407-5.519,21.773-12.354,42.912-12.354v-1.4c-21.483,0-29.32,7.048-43.412,12.446Zm42.912-12.354c8.731,0,15.327.648,21.983,2.5s13.421,4.926,22.466,9.815l.664-1.229c-9.077-4.907-15.943-8.035-22.755-9.932s-13.554-2.552-22.358-2.552ZM312.9,242.463a68.021,68.021,0,0,0,26.519,7.975c12.6,1.221,29.159-.22,50.394-7.933l-.477-1.313c-21.064,7.651-37.415,9.054-49.783,7.856a66.632,66.632,0,0,1-25.99-7.814Z" transform="translate(-129.715 -100.594)" fill="none" stroke="#e7f7f6" stroke-width="2"/>
    <path id="Path_1649" data-name="Path 1649" d="M519.036,241.2l-.652.251.5,1.3.652-.251Zm43.413-11.748v0Zm44.781,12.4-.332.614Zm-87.692.652c13.566-5.223,21.773-12.353,42.911-12.353v-1.4c-21.484,0-30.156,7.343-43.413,12.447Zm42.911-12.353c8.731,0,15.327.648,21.983,2.5s13.421,4.926,22.466,9.815l.664-1.229c-9.077-4.907-15.942-8.035-22.755-9.932s-13.554-2.552-22.358-2.552ZM606.9,242.463a68.02,68.02,0,0,0,26.519,7.975c12.6,1.221,29.159-.22,50.395-7.933l-.477-1.313c-21.064,7.651-37.415,9.054-49.783,7.856a66.632,66.632,0,0,1-25.99-7.814Z" transform="translate(-259.427 -100.594)" fill="none" stroke="#e7f7f6" stroke-width="2"/>
    <path id="Path_1650" data-name="Path 1650" d="M-68.964,298.2l-.652.251.5,1.3.652-.251Zm43.413-11.748v0Zm44.781,12.4-.332.614Zm-87.692.652c13.566-5.223,21.773-12.353,42.911-12.353v-1.4c-21.484,0-30.157,7.343-43.413,12.447Zm42.911-12.353c8.731,0,15.327.648,21.983,2.5s13.421,4.926,22.466,9.815l.664-1.229C10.485,293.327,3.62,290.2-3.193,288.3s-13.554-2.552-22.358-2.552ZM18.9,299.463a68.023,68.023,0,0,0,26.519,7.975c12.6,1.221,29.159-.22,50.395-7.933l-.477-1.313c-21.064,7.651-37.415,9.054-49.783,7.856a66.633,66.633,0,0,1-25.99-7.814Z" transform="translate(0 -125.743)" fill="none" stroke="#e7f7f6" stroke-width="2"/>
    <path id="Path_1651" data-name="Path 1651" d="M225.038,298.2l-.652.25.5,1.3.652-.25Zm43.412-11.748v0Zm44.781,12.4-.332.614Zm-87.693.652c14.407-5.519,21.773-12.354,42.912-12.354v-1.4c-21.483,0-29.32,7.048-43.412,12.446Zm42.912-12.354c8.731,0,15.327.648,21.983,2.5s13.421,4.926,22.466,9.815l.664-1.229c-9.077-4.907-15.943-8.035-22.755-9.932s-13.554-2.552-22.358-2.552ZM312.9,299.463a68.023,68.023,0,0,0,26.519,7.975c12.6,1.221,29.159-.22,50.394-7.933l-.477-1.313c-21.064,7.651-37.415,9.054-49.783,7.856a66.631,66.631,0,0,1-25.99-7.814Z" transform="translate(-129.715 -125.743)" fill="none" stroke="#e7f7f6" stroke-width="2"/>
    <path id="Path_1652" data-name="Path 1652" d="M519.036,298.2l-.652.251.5,1.3.652-.251Zm43.413-11.748v0Zm44.781,12.4-.332.614Zm-87.692.652c13.566-5.223,21.773-12.353,42.911-12.353v-1.4c-21.484,0-30.156,7.343-43.413,12.447Zm42.911-12.353c8.731,0,15.327.648,21.983,2.5s13.421,4.926,22.466,9.815l.664-1.229c-9.077-4.907-15.942-8.035-22.755-9.932s-13.554-2.552-22.358-2.552ZM606.9,299.463a68.021,68.021,0,0,0,26.519,7.975c12.6,1.221,29.159-.22,50.395-7.933l-.477-1.313c-21.064,7.651-37.415,9.054-49.783,7.856a66.631,66.631,0,0,1-25.99-7.814Z" transform="translate(-259.427 -125.743)" fill="none" stroke="#e7f7f6" stroke-width="2"/>
    <path id="Path_1653" data-name="Path 1653" d="M-68.964,279.2l-.652.251.5,1.3.652-.251Zm43.413-11.748v0Zm44.781,12.4-.332.614Zm-87.692.652c13.566-5.223,21.773-12.353,42.911-12.353v-1.4c-21.484,0-30.157,7.343-43.413,12.447Zm42.911-12.353c8.731,0,15.327.648,21.983,2.5s13.421,4.926,22.466,9.815l.664-1.229C10.485,274.327,3.62,271.2-3.193,269.3s-13.554-2.552-22.358-2.552ZM18.9,280.463a68.023,68.023,0,0,0,26.519,7.975c12.6,1.221,29.159-.22,50.395-7.933l-.477-1.313c-21.064,7.651-37.415,9.054-49.783,7.856a66.635,66.635,0,0,1-25.99-7.814Z" transform="translate(0 -117.36)" fill="none" stroke="#e7f7f6" stroke-width="2"/>
    <path id="Path_1654" data-name="Path 1654" d="M225.038,279.2l-.652.25.5,1.3.652-.25Zm43.412-11.748v0Zm44.781,12.4-.332.614Zm-87.693.652c14.407-5.519,21.773-12.354,42.912-12.354v-1.4c-21.483,0-29.32,7.048-43.412,12.446Zm42.912-12.354c8.731,0,15.327.648,21.983,2.5s13.421,4.926,22.466,9.815l.664-1.229c-9.077-4.907-15.943-8.035-22.755-9.932s-13.554-2.552-22.358-2.552ZM312.9,280.463a68.022,68.022,0,0,0,26.519,7.975c12.6,1.221,29.159-.22,50.394-7.933l-.477-1.313c-21.064,7.651-37.415,9.054-49.783,7.856a66.633,66.633,0,0,1-25.99-7.814Z" transform="translate(-129.715 -117.36)" fill="none" stroke="#e7f7f6" stroke-width="2"/>
    <path id="Path_1655" data-name="Path 1655" d="M519.036,279.2l-.652.251.5,1.3.652-.251Zm43.413-11.748v0Zm44.781,12.4-.332.614Zm-87.692.652c13.566-5.223,21.773-12.353,42.911-12.353v-1.4c-21.484,0-30.156,7.343-43.413,12.447Zm42.911-12.353c8.731,0,15.327.648,21.983,2.5s13.421,4.926,22.466,9.815l.664-1.229c-9.077-4.907-15.942-8.035-22.755-9.932s-13.554-2.552-22.358-2.552ZM606.9,280.463a68.021,68.021,0,0,0,26.519,7.975c12.6,1.221,29.159-.22,50.395-7.933l-.477-1.313c-21.064,7.651-37.415,9.054-49.783,7.856a66.633,66.633,0,0,1-25.99-7.814Z" transform="translate(-259.427 -117.36)" fill="none" stroke="#e7f7f6" stroke-width="2"/>
  </g>
</svg>
